<mxfile host="app.diagrams.net" modified="2022-09-28T15:08:28.437Z" agent="5.0 (Windows NT 10.0; Win64; x64) AppleWebKit/537.36 (KHTML, like Gecko) Chrome/105.0.0.0 Safari/537.36" etag="La-MZnzgzdmi-L2_K7aB" version="20.3.7" type="github">
  <diagram id="OjWw2-eDRlJaMKBqfT2u" name="Page-1">
    <mxGraphModel dx="1422" dy="754" grid="1" gridSize="10" guides="1" tooltips="1" connect="1" arrows="1" fold="1" page="1" pageScale="1" pageWidth="850" pageHeight="1100" math="0" shadow="0">
      <root>
        <mxCell id="0" />
        <mxCell id="1" parent="0" />
        <mxCell id="VJrdRt5P7hD_0nNSixCf-2" value="admin&lt;br&gt;" style="shape=umlActor;verticalLabelPosition=bottom;verticalAlign=top;html=1;" parent="1" vertex="1">
          <mxGeometry x="150" y="570" width="80" height="110" as="geometry" />
        </mxCell>
        <mxCell id="VJrdRt5P7hD_0nNSixCf-10" value="view mentor" style="ellipse;whiteSpace=wrap;html=1;" parent="1" vertex="1">
          <mxGeometry x="340" y="430" width="120" height="50" as="geometry" />
        </mxCell>
        <mxCell id="VJrdRt5P7hD_0nNSixCf-12" value="view mentee" style="ellipse;whiteSpace=wrap;html=1;" parent="1" vertex="1">
          <mxGeometry x="340" y="490" width="120" height="50" as="geometry" />
        </mxCell>
        <mxCell id="VJrdRt5P7hD_0nNSixCf-13" value="view request" style="ellipse;whiteSpace=wrap;html=1;" parent="1" vertex="1">
          <mxGeometry x="340" y="550" width="120" height="50" as="geometry" />
        </mxCell>
        <mxCell id="VJrdRt5P7hD_0nNSixCf-14" value="static all mentee" style="ellipse;whiteSpace=wrap;html=1;" parent="1" vertex="1">
          <mxGeometry x="340" y="610" width="120" height="50" as="geometry" />
        </mxCell>
        <mxCell id="VJrdRt5P7hD_0nNSixCf-15" value="mentor management&lt;br&gt;list" style="ellipse;whiteSpace=wrap;html=1;" parent="1" vertex="1">
          <mxGeometry x="340" y="670" width="120" height="50" as="geometry" />
        </mxCell>
        <mxCell id="VJrdRt5P7hD_0nNSixCf-16" value="mentor management&lt;br&gt;filter" style="ellipse;whiteSpace=wrap;html=1;" parent="1" vertex="1">
          <mxGeometry x="340" y="730" width="120" height="50" as="geometry" />
        </mxCell>
        <mxCell id="VJrdRt5P7hD_0nNSixCf-18" value="mentor management&lt;br&gt;search" style="ellipse;whiteSpace=wrap;html=1;" parent="1" vertex="1">
          <mxGeometry x="340" y="790" width="120" height="50" as="geometry" />
        </mxCell>
        <mxCell id="VJrdRt5P7hD_0nNSixCf-19" value="mentor management&lt;br&gt;show" style="ellipse;whiteSpace=wrap;html=1;" parent="1" vertex="1">
          <mxGeometry x="340" y="850" width="120" height="50" as="geometry" />
        </mxCell>
        <mxCell id="VJrdRt5P7hD_0nNSixCf-20" value="mentor management&lt;br&gt;hide" style="ellipse;whiteSpace=wrap;html=1;" parent="1" vertex="1">
          <mxGeometry x="340" y="910" width="120" height="50" as="geometry" />
        </mxCell>
        <mxCell id="VJrdRt5P7hD_0nNSixCf-21" value="mentor management&lt;br&gt;view" style="ellipse;whiteSpace=wrap;html=1;" parent="1" vertex="1">
          <mxGeometry x="340" y="970" width="120" height="50" as="geometry" />
        </mxCell>
        <mxCell id="VJrdRt5P7hD_0nNSixCf-22" value="mentor management&lt;br&gt;add new" style="ellipse;whiteSpace=wrap;html=1;" parent="1" vertex="1">
          <mxGeometry x="340" y="1030" width="120" height="50" as="geometry" />
        </mxCell>
        <mxCell id="VJrdRt5P7hD_0nNSixCf-23" value="mentor management&lt;br&gt;edit existing mentor" style="ellipse;whiteSpace=wrap;html=1;" parent="1" vertex="1">
          <mxGeometry x="340" y="1090" width="120" height="50" as="geometry" />
        </mxCell>
        <mxCell id="VJrdRt5P7hD_0nNSixCf-24" value="skill management&lt;br&gt;view list of skill" style="ellipse;whiteSpace=wrap;html=1;" parent="1" vertex="1">
          <mxGeometry x="340" y="1150" width="120" height="50" as="geometry" />
        </mxCell>
        <mxCell id="VJrdRt5P7hD_0nNSixCf-25" value="mentor management:&lt;br&gt;create skill" style="ellipse;whiteSpace=wrap;html=1;" parent="1" vertex="1">
          <mxGeometry x="340" y="1210" width="120" height="50" as="geometry" />
        </mxCell>
        <mxCell id="VJrdRt5P7hD_0nNSixCf-26" value="mentor management&lt;br&gt;update skill" style="ellipse;whiteSpace=wrap;html=1;" parent="1" vertex="1">
          <mxGeometry x="340" y="1280" width="120" height="50" as="geometry" />
        </mxCell>
        <mxCell id="VJrdRt5P7hD_0nNSixCf-28" value="" style="endArrow=none;html=1;rounded=0;" parent="1" target="VJrdRt5P7hD_0nNSixCf-10" edge="1">
          <mxGeometry width="50" height="50" relative="1" as="geometry">
            <mxPoint x="200" y="610" as="sourcePoint" />
            <mxPoint x="450" y="630" as="targetPoint" />
          </mxGeometry>
        </mxCell>
        <mxCell id="VJrdRt5P7hD_0nNSixCf-29" value="" style="endArrow=none;html=1;rounded=0;" parent="1" target="VJrdRt5P7hD_0nNSixCf-12" edge="1">
          <mxGeometry width="50" height="50" relative="1" as="geometry">
            <mxPoint x="210" y="620" as="sourcePoint" />
            <mxPoint x="381.5879024577175" y="487.01937559526914" as="targetPoint" />
          </mxGeometry>
        </mxCell>
        <mxCell id="VJrdRt5P7hD_0nNSixCf-30" value="" style="endArrow=none;html=1;rounded=0;" parent="1" target="VJrdRt5P7hD_0nNSixCf-13" edge="1">
          <mxGeometry width="50" height="50" relative="1" as="geometry">
            <mxPoint x="220" y="630" as="sourcePoint" />
            <mxPoint x="391.5879024577175" y="497.01937559526914" as="targetPoint" />
          </mxGeometry>
        </mxCell>
        <mxCell id="VJrdRt5P7hD_0nNSixCf-31" value="" style="endArrow=none;html=1;rounded=0;" parent="1" target="VJrdRt5P7hD_0nNSixCf-14" edge="1">
          <mxGeometry width="50" height="50" relative="1" as="geometry">
            <mxPoint x="230" y="640" as="sourcePoint" />
            <mxPoint x="401.5879024577175" y="507.01937559526914" as="targetPoint" />
          </mxGeometry>
        </mxCell>
        <mxCell id="VJrdRt5P7hD_0nNSixCf-32" value="" style="endArrow=none;html=1;rounded=0;" parent="1" target="VJrdRt5P7hD_0nNSixCf-15" edge="1">
          <mxGeometry width="50" height="50" relative="1" as="geometry">
            <mxPoint x="240" y="650" as="sourcePoint" />
            <mxPoint x="411.5879024577175" y="517.0193755952691" as="targetPoint" />
          </mxGeometry>
        </mxCell>
        <mxCell id="VJrdRt5P7hD_0nNSixCf-33" value="" style="endArrow=none;html=1;rounded=0;" parent="1" target="VJrdRt5P7hD_0nNSixCf-16" edge="1">
          <mxGeometry width="50" height="50" relative="1" as="geometry">
            <mxPoint x="250" y="660" as="sourcePoint" />
            <mxPoint x="421.5879024577175" y="527.0193755952691" as="targetPoint" />
          </mxGeometry>
        </mxCell>
        <mxCell id="VJrdRt5P7hD_0nNSixCf-37" value="" style="endArrow=none;html=1;rounded=0;" parent="1" source="VJrdRt5P7hD_0nNSixCf-18" edge="1">
          <mxGeometry width="50" height="50" relative="1" as="geometry">
            <mxPoint x="410" y="950" as="sourcePoint" />
            <mxPoint x="210" y="670" as="targetPoint" />
          </mxGeometry>
        </mxCell>
        <mxCell id="VJrdRt5P7hD_0nNSixCf-38" value="" style="endArrow=none;html=1;rounded=0;exitX=0;exitY=0.64;exitDx=0;exitDy=0;exitPerimeter=0;" parent="1" source="VJrdRt5P7hD_0nNSixCf-19" edge="1">
          <mxGeometry width="50" height="50" relative="1" as="geometry">
            <mxPoint x="381.24766928201825" y="803.0574318204876" as="sourcePoint" />
            <mxPoint x="200" y="650" as="targetPoint" />
          </mxGeometry>
        </mxCell>
        <mxCell id="VJrdRt5P7hD_0nNSixCf-39" value="" style="endArrow=none;html=1;rounded=0;exitX=0;exitY=0.5;exitDx=0;exitDy=0;" parent="1" source="VJrdRt5P7hD_0nNSixCf-21" edge="1">
          <mxGeometry width="50" height="50" relative="1" as="geometry">
            <mxPoint x="391.24766928201825" y="813.0574318204876" as="sourcePoint" />
            <mxPoint x="200" y="660" as="targetPoint" />
          </mxGeometry>
        </mxCell>
        <mxCell id="VJrdRt5P7hD_0nNSixCf-40" value="" style="endArrow=none;html=1;rounded=0;exitX=0;exitY=0.5;exitDx=0;exitDy=0;" parent="1" source="VJrdRt5P7hD_0nNSixCf-22" edge="1">
          <mxGeometry width="50" height="50" relative="1" as="geometry">
            <mxPoint x="350" y="1005" as="sourcePoint" />
            <mxPoint x="210" y="670" as="targetPoint" />
          </mxGeometry>
        </mxCell>
        <mxCell id="VJrdRt5P7hD_0nNSixCf-41" value="" style="endArrow=none;html=1;rounded=0;exitX=0;exitY=0.5;exitDx=0;exitDy=0;" parent="1" source="VJrdRt5P7hD_0nNSixCf-23" edge="1">
          <mxGeometry width="50" height="50" relative="1" as="geometry">
            <mxPoint x="360" y="1015" as="sourcePoint" />
            <mxPoint x="220" y="680" as="targetPoint" />
          </mxGeometry>
        </mxCell>
        <mxCell id="VJrdRt5P7hD_0nNSixCf-42" value="" style="endArrow=none;html=1;rounded=0;exitX=0;exitY=0.5;exitDx=0;exitDy=0;" parent="1" source="VJrdRt5P7hD_0nNSixCf-24" edge="1">
          <mxGeometry width="50" height="50" relative="1" as="geometry">
            <mxPoint x="130" y="950" as="sourcePoint" />
            <mxPoint x="230" y="680" as="targetPoint" />
          </mxGeometry>
        </mxCell>
        <mxCell id="VJrdRt5P7hD_0nNSixCf-43" value="" style="endArrow=none;html=1;rounded=0;exitX=0;exitY=0.5;exitDx=0;exitDy=0;entryX=1;entryY=1;entryDx=0;entryDy=0;entryPerimeter=0;" parent="1" source="VJrdRt5P7hD_0nNSixCf-25" target="VJrdRt5P7hD_0nNSixCf-2" edge="1">
          <mxGeometry width="50" height="50" relative="1" as="geometry">
            <mxPoint x="350" y="1185" as="sourcePoint" />
            <mxPoint x="190" y="680" as="targetPoint" />
          </mxGeometry>
        </mxCell>
        <mxCell id="VJrdRt5P7hD_0nNSixCf-44" value="" style="endArrow=none;html=1;rounded=0;exitX=0;exitY=0.5;exitDx=0;exitDy=0;" parent="1" source="VJrdRt5P7hD_0nNSixCf-26" edge="1">
          <mxGeometry width="50" height="50" relative="1" as="geometry">
            <mxPoint x="360" y="1195" as="sourcePoint" />
            <mxPoint x="230" y="680" as="targetPoint" />
          </mxGeometry>
        </mxCell>
        <mxCell id="VJrdRt5P7hD_0nNSixCf-47" value="user" style="shape=umlActor;verticalLabelPosition=bottom;verticalAlign=top;html=1;" parent="1" vertex="1">
          <mxGeometry x="990" y="560" width="80" height="110" as="geometry" />
        </mxCell>
        <mxCell id="VJrdRt5P7hD_0nNSixCf-48" value="sign in" style="ellipse;whiteSpace=wrap;html=1;" parent="1" vertex="1">
          <mxGeometry x="790" y="440" width="120" height="50" as="geometry" />
        </mxCell>
        <mxCell id="VJrdRt5P7hD_0nNSixCf-49" value="Static invitation" style="ellipse;whiteSpace=wrap;html=1;" parent="1" vertex="1">
          <mxGeometry x="790" y="500" width="120" height="50" as="geometry" />
        </mxCell>
        <mxCell id="VJrdRt5P7hD_0nNSixCf-50" value="List invitation" style="ellipse;whiteSpace=wrap;html=1;" parent="1" vertex="1">
          <mxGeometry x="790" y="560" width="120" height="50" as="geometry" />
        </mxCell>
        <mxCell id="VJrdRt5P7hD_0nNSixCf-51" value="Static request" style="ellipse;whiteSpace=wrap;html=1;" parent="1" vertex="1">
          <mxGeometry x="790" y="620" width="120" height="50" as="geometry" />
        </mxCell>
        <mxCell id="VJrdRt5P7hD_0nNSixCf-52" value="List Request" style="ellipse;whiteSpace=wrap;html=1;" parent="1" vertex="1">
          <mxGeometry x="790" y="680" width="120" height="50" as="geometry" />
        </mxCell>
        <mxCell id="VJrdRt5P7hD_0nNSixCf-53" value="Update Request" style="ellipse;whiteSpace=wrap;html=1;" parent="1" vertex="1">
          <mxGeometry x="790" y="740" width="120" height="50" as="geometry" />
        </mxCell>
        <mxCell id="VJrdRt5P7hD_0nNSixCf-54" value="Change Password" style="ellipse;whiteSpace=wrap;html=1;" parent="1" vertex="1">
          <mxGeometry x="790" y="800" width="120" height="50" as="geometry" />
        </mxCell>
        <mxCell id="VJrdRt5P7hD_0nNSixCf-55" value="Reset Password" style="ellipse;whiteSpace=wrap;html=1;" parent="1" vertex="1">
          <mxGeometry x="790" y="860" width="120" height="50" as="geometry" />
        </mxCell>
        <mxCell id="VJrdRt5P7hD_0nNSixCf-56" value="Response invitation" style="ellipse;whiteSpace=wrap;html=1;" parent="1" vertex="1">
          <mxGeometry x="790" y="920" width="120" height="50" as="geometry" />
        </mxCell>
        <mxCell id="VJrdRt5P7hD_0nNSixCf-57" value="Response request" style="ellipse;whiteSpace=wrap;html=1;" parent="1" vertex="1">
          <mxGeometry x="790" y="980" width="120" height="50" as="geometry" />
        </mxCell>
        <mxCell id="VJrdRt5P7hD_0nNSixCf-58" value="" style="endArrow=none;html=1;rounded=0;entryX=0;entryY=1;entryDx=0;entryDy=0;entryPerimeter=0;exitX=1;exitY=0.5;exitDx=0;exitDy=0;" parent="1" source="VJrdRt5P7hD_0nNSixCf-50" target="VJrdRt5P7hD_0nNSixCf-47" edge="1">
          <mxGeometry width="50" height="50" relative="1" as="geometry">
            <mxPoint x="590" y="840" as="sourcePoint" />
            <mxPoint x="640" y="790" as="targetPoint" />
          </mxGeometry>
        </mxCell>
        <mxCell id="VJrdRt5P7hD_0nNSixCf-59" value="" style="endArrow=none;html=1;rounded=0;entryX=0;entryY=1;entryDx=0;entryDy=0;entryPerimeter=0;exitX=1;exitY=0.5;exitDx=0;exitDy=0;" parent="1" source="VJrdRt5P7hD_0nNSixCf-51" edge="1">
          <mxGeometry width="50" height="50" relative="1" as="geometry">
            <mxPoint x="919.9999999999955" y="595" as="sourcePoint" />
            <mxPoint x="1000" y="680" as="targetPoint" />
          </mxGeometry>
        </mxCell>
        <mxCell id="VJrdRt5P7hD_0nNSixCf-60" value="" style="endArrow=none;html=1;rounded=0;exitX=1.006;exitY=0.317;exitDx=0;exitDy=0;exitPerimeter=0;" parent="1" source="VJrdRt5P7hD_0nNSixCf-52" edge="1">
          <mxGeometry width="50" height="50" relative="1" as="geometry">
            <mxPoint x="929.9999999999955" y="605" as="sourcePoint" />
            <mxPoint x="1000" y="680" as="targetPoint" />
          </mxGeometry>
        </mxCell>
        <mxCell id="VJrdRt5P7hD_0nNSixCf-61" value="" style="endArrow=none;html=1;rounded=0;exitX=1;exitY=0.5;exitDx=0;exitDy=0;" parent="1" source="VJrdRt5P7hD_0nNSixCf-53" edge="1">
          <mxGeometry width="50" height="50" relative="1" as="geometry">
            <mxPoint x="939.9999999999955" y="615" as="sourcePoint" />
            <mxPoint x="1000" y="680" as="targetPoint" />
          </mxGeometry>
        </mxCell>
        <mxCell id="VJrdRt5P7hD_0nNSixCf-62" value="" style="endArrow=none;html=1;rounded=0;exitX=1;exitY=0.5;exitDx=0;exitDy=0;" parent="1" source="VJrdRt5P7hD_0nNSixCf-54" edge="1">
          <mxGeometry width="50" height="50" relative="1" as="geometry">
            <mxPoint x="949.9999999999955" y="625" as="sourcePoint" />
            <mxPoint x="1000" y="680" as="targetPoint" />
          </mxGeometry>
        </mxCell>
        <mxCell id="VJrdRt5P7hD_0nNSixCf-63" value="" style="endArrow=none;html=1;rounded=0;exitX=1;exitY=0.5;exitDx=0;exitDy=0;" parent="1" source="VJrdRt5P7hD_0nNSixCf-55" edge="1">
          <mxGeometry width="50" height="50" relative="1" as="geometry">
            <mxPoint x="959.9999999999955" y="635" as="sourcePoint" />
            <mxPoint x="1000" y="680" as="targetPoint" />
          </mxGeometry>
        </mxCell>
        <mxCell id="VJrdRt5P7hD_0nNSixCf-64" value="" style="endArrow=none;html=1;rounded=0;exitX=1;exitY=0.5;exitDx=0;exitDy=0;" parent="1" source="VJrdRt5P7hD_0nNSixCf-56" edge="1">
          <mxGeometry width="50" height="50" relative="1" as="geometry">
            <mxPoint x="969.9999999999955" y="645" as="sourcePoint" />
            <mxPoint x="1000" y="680" as="targetPoint" />
          </mxGeometry>
        </mxCell>
        <mxCell id="VJrdRt5P7hD_0nNSixCf-65" value="" style="endArrow=none;html=1;rounded=0;exitX=1.018;exitY=0.386;exitDx=0;exitDy=0;exitPerimeter=0;" parent="1" source="VJrdRt5P7hD_0nNSixCf-57" edge="1">
          <mxGeometry width="50" height="50" relative="1" as="geometry">
            <mxPoint x="979.9999999999955" y="655" as="sourcePoint" />
            <mxPoint x="1000" y="680" as="targetPoint" />
          </mxGeometry>
        </mxCell>
        <mxCell id="VJrdRt5P7hD_0nNSixCf-66" value="" style="endArrow=none;html=1;rounded=0;entryX=0;entryY=1;entryDx=0;entryDy=0;entryPerimeter=0;exitX=1;exitY=0.5;exitDx=0;exitDy=0;" parent="1" source="VJrdRt5P7hD_0nNSixCf-49" edge="1">
          <mxGeometry width="50" height="50" relative="1" as="geometry">
            <mxPoint x="920" y="595" as="sourcePoint" />
            <mxPoint x="1000" y="680" as="targetPoint" />
          </mxGeometry>
        </mxCell>
        <mxCell id="VJrdRt5P7hD_0nNSixCf-67" value="" style="endArrow=none;html=1;rounded=0;entryX=0;entryY=1;entryDx=0;entryDy=0;entryPerimeter=0;exitX=1;exitY=0.5;exitDx=0;exitDy=0;" parent="1" source="VJrdRt5P7hD_0nNSixCf-48" edge="1">
          <mxGeometry width="50" height="50" relative="1" as="geometry">
            <mxPoint x="930" y="605" as="sourcePoint" />
            <mxPoint x="1010" y="690" as="targetPoint" />
          </mxGeometry>
        </mxCell>
      </root>
    </mxGraphModel>
  </diagram>
</mxfile>
